<?xml version="1.0" encoding="UTF-8" standalone="no"?>
<svg
   xmlns:dc="http://purl.org/dc/elements/1.1/"
   xmlns:cc="http://creativecommons.org/ns#"
   xmlns:rdf="http://www.w3.org/1999/02/22-rdf-syntax-ns#"
   xmlns:svg="http://www.w3.org/2000/svg"
   xmlns="http://www.w3.org/2000/svg"
   xmlns:xlink="http://www.w3.org/1999/xlink"
   xmlns:sodipodi="http://sodipodi.sourceforge.net/DTD/sodipodi-0.dtd"
   xmlns:inkscape="http://www.inkscape.org/namespaces/inkscape"
   viewBox="0 0 24 24"
   version="1.1"
   id="svg4"
   sodipodi:docname="favicon.svg"
   inkscape:version="0.92.4 (5da689c313, 2019-01-14)">
  <metadata
     id="metadata10">
    <rdf:RDF>
      <cc:Work
         rdf:about="">
        <dc:format>image/svg+xml</dc:format>
        <dc:type
           rdf:resource="http://purl.org/dc/dcmitype/StillImage" />
        <dc:title></dc:title>
      </cc:Work>
    </rdf:RDF>
  </metadata>
  <defs
     id="defs8">
    <linearGradient
       inkscape:collect="always"
       id="linearGradient829">
      <stop
         style="stop-color:#8957fd;stop-opacity:1;"
         offset="0"
         id="stop825" />
      <stop
         style="stop-color:#8957fd;stop-opacity:0.69902915"
         offset="1"
         id="stop827" />
    </linearGradient>
    <linearGradient
       inkscape:collect="always"
       xlink:href="#linearGradient829"
       id="linearGradient831"
       x1="52.206055"
       y1="33.060555"
       x2="44.727501"
       y2="-8.5029421"
       gradientUnits="userSpaceOnUse"
       gradientTransform="matrix(2,0,0,2,-30.576271,-27.491525)" />
  </defs>
  <sodipodi:namedview
     pagecolor="#ffffff"
     bordercolor="#666666"
     borderopacity="1"
     objecttolerance="10"
     gridtolerance="10"
     guidetolerance="10"
     inkscape:pageopacity="0"
     inkscape:pageshadow="2"
     inkscape:window-width="1920"
     inkscape:window-height="1057"
     id="namedview6"
     showgrid="false"
     inkscape:zoom="4.9166667"
     inkscape:cx="-10.342386"
     inkscape:cy="1.0426856"
     inkscape:window-x="-8"
     inkscape:window-y="-8"
     inkscape:window-maximized="1"
     inkscape:current-layer="svg4" />
  <path
     d="m 91.376271,-23.708474 a 3.2,3.2 0 0 0 -3.2,3.2 v 31.999999 a 9.6,9.6 0 0 1 -9.6,9.6 h -32 a 3.2,3.2 0 0 0 0,6.4 h 32 a 16,16 0 0 0 16,-16 v -31.999999 a 3.2,3.2 0 0 0 -3.2,-3.2 z m -9.6,28.799999 v -31.999999 a 9.6,9.6 0 0 0 -9.6,-9.6 h -32 a 9.6,9.6 0 0 0 -9.6,9.6 V 5.091525 a 9.6,9.6 0 0 0 9.6,9.6 h 32 a 9.6,9.6 0 0 0 9.6,-9.6 z m -25.6,-35.199999 h 6.4 v 15.552 l -1.152,-0.96 a 3.2,3.2 0 0 0 -4.096,0 l -1.152,0.96 z m -19.2,35.199999 v -31.999999 a 3.2,3.2 0 0 1 3.2,-3.2 h 9.6 v 22.3999998 a 3.2,3.2 0 0 0 5.28,2.4319992 l 4.32,-3.6159992 4.32,3.6159992 a 3.2,3.2 0 0 0 2.08,0.768 3.392,3.392 0 0 0 1.344,-0.288 3.2,3.2 0 0 0 1.856,-2.9119992 V -30.108474 h 3.2 a 3.2,3.2 0 0 1 3.2,3.2 V 5.091525 a 3.2,3.2 0 0 1 -3.2,3.2 h -32 a 3.2,3.2 0 0 1 -3.2,-3.2 z"
     id="path2"
     inkscape:connector-curvature="0"
     style="fill:url(#linearGradient831);fill-opacity:1;stroke-width:3.20000005"
     inkscape:export-xdpi="96"
     inkscape:export-ydpi="96" />
</svg>
